<?xml version="1.0" encoding="UTF-8" standalone="no"?>
<!-- Created with Inkscape (http://www.inkscape.org/) -->

<svg
   xmlns:dc="http://purl.org/dc/elements/1.1/"
   xmlns:cc="http://creativecommons.org/ns#"
   xmlns:rdf="http://www.w3.org/1999/02/22-rdf-syntax-ns#"
   xmlns:svg="http://www.w3.org/2000/svg"
   xmlns="http://www.w3.org/2000/svg"
   xmlns:sodipodi="http://sodipodi.sourceforge.net/DTD/sodipodi-0.dtd"
   xmlns:inkscape="http://www.inkscape.org/namespaces/inkscape"
   width="200mm"
   height="100mm"
   viewBox="0 0 200 100"
   version="1.1"
   id="svg8"
   inkscape:version="0.92.2 2405546, 2018-03-11"
   sodipodi:docname="logo-black-and-white.svg"
   inkscape:export-filename="/home/crem/dev/leela-chess/scripts/logos/logo-black-and-white.png"
   inkscape:export-xdpi="99.094933"
   inkscape:export-ydpi="99.094933">
  <defs
     id="defs2">
    <inkscape:path-effect
       effect="mirror_symmetry"
       start_point="110.36904,74.85604"
       end_point="110.36904,214.31226"
       center_point="110.36904,144.58415"
       id="path-effect1705"
       is_visible="true"
       mode="free"
       discard_orig_path="false"
       fuse_paths="false"
       oposite_fuse="false" />
    <inkscape:path-effect
       effect="mirror_symmetry"
       start_point="-111.10986,103.43639"
       end_point="-111.10986,117.11073"
       center_point="-111.10986,110.27356"
       id="path-effect4708"
       is_visible="true"
       mode="free"
       discard_orig_path="false"
       fuse_paths="true"
       oposite_fuse="true" />
    <inkscape:path-effect
       effect="mirror_symmetry"
       start_point="-111.12509,104.60265"
       end_point="-111.12509,117.76265"
       center_point="-111.12509,111.18265"
       id="path-effect4705"
       is_visible="true"
       mode="free"
       discard_orig_path="false"
       fuse_paths="true"
       oposite_fuse="true" />
  </defs>
  <sodipodi:namedview
     id="base"
     pagecolor="#ffffff"
     bordercolor="#666666"
     borderopacity="1.0"
     inkscape:pageopacity="0"
     inkscape:pageshadow="2"
     inkscape:zoom="0.49497475"
     inkscape:cx="134.49842"
     inkscape:cy="150.03908"
     inkscape:document-units="mm"
     inkscape:current-layer="layer1"
     showgrid="false"
     inkscape:window-width="1916"
     inkscape:window-height="1165"
     inkscape:window-x="0"
     inkscape:window-y="16"
     inkscape:window-maximized="0"
     inkscape:measure-start="312.857,-158.571"
     inkscape:measure-end="5.05076,335.432" />
  <metadata
     id="metadata5">
    <rdf:RDF>
      <cc:Work
         rdf:about="">
        <dc:format>image/svg+xml</dc:format>
        <dc:type
           rdf:resource="http://purl.org/dc/dcmitype/StillImage" />
        <dc:title></dc:title>
      </cc:Work>
    </rdf:RDF>
  </metadata>
  <g
     inkscape:label="Layer 1"
     inkscape:groupmode="layer"
     id="layer1"
     transform="translate(0,-197)">
    <path
       inkscape:connector-curvature="0"
       style="fill:#000000;stroke-width:0.26458335;fill-opacity:1"
       d="m 93.778174,278.82838 v 3e-4 c 3.50682,-0.0152 7.146516,0.0299 9.933256,0.15245 l 6.48229,0.28525 1.01493,1.13378 c 2.44135,2.7266 3.02281,3.5926 2.88768,4.29948 -0.0754,0.39421 -0.64412,1.10891 -1.33015,1.67173 l -1.19838,0.98341 -3.59771,0.14417 v -5.1e-4 c -4.83389,0.19346 -22.866082,0.19963 -27.110512,0.009 l -3.40445,-0.15296 -0.89503,-1.03612 c -0.49215,-0.56995 -0.89452,-1.18007 -0.89452,-1.35547 0,-0.5617 4.72739,-4.81874 6.24768,-5.62601 0.54412,-0.28893 6.020203,-0.4831 11.864916,-0.5085 z"
       id="path4605-6" />
    <path
       inkscape:connector-curvature="0"
       style="fill:#000000;fill-opacity:0.07843138;stroke-width:0.26458335"
       d="m 120.68869,248.15016 v -1e-5 c 0.0933,-0.002 0.17087,0.0154 0.23048,0.0522 0.14769,0.0913 0.85765,0.87415 1.57819,1.73994 1.49131,1.79202 1.43812,1.00885 0.51883,7.64657 -2.1672,15.64837 -3.25959,22.32182 -3.7853,23.12416 -0.2599,0.39666 -1.02409,1.07118 -1.69809,1.49862 -0.674,0.42744 -1.30804,0.77721 -1.40921,0.77721 -0.1012,0 -1.10283,-0.98226 -2.22623,-2.18281 l -2.04277,-2.18281 0.13798,-1.71979 c 0.19883,-2.47645 0.75241,-6.71245 2.42104,-18.52083 l 0.87902,-6.21771 1.74511,-1.62109 c 1.56497,-1.45379 2.99773,-2.38185 3.65095,-2.39365 z"
       id="path4603-7" />
    <path
       inkscape:connector-curvature="0"
       style="fill:#000000;stroke-width:0.26458335;fill-opacity:1"
       d="m 80.821338,248.06386 c 0.50056,0 2.76097,2.14786 3.27887,3.11557 0.43349,0.80997 -0.21879,6.23134 -2.07688,17.25734 -0.13488,0.80036 -0.37881,2.40771 -0.54209,3.57187 -0.16325,1.16417 -0.48436,2.9373 -0.71313,3.94033 -0.46925,2.05735 -0.89279,2.57649 -4.3956,5.38624 -1.13385,0.9095 -2.21071,1.65364 -2.39313,1.65364 -0.37971,0 -1.60998,-1.25907 -1.80971,-1.85208 -0.13801,-0.40975 0.26189,-4.30892 0.96325,-9.39271 1.88523,-13.66511 2.50363,-17.91111 2.77554,-19.04999 0.24985,-1.04648 0.65796,-1.50018 3.35587,-3.73208 0.59707,-0.49394 1.2979,-0.89813 1.55701,-0.89813 z"
       id="path4601-5" />
    <path
       inkscape:connector-curvature="0"
       style="fill:#000000;stroke-width:0.26458335;fill-opacity:1"
       d="m 87.671571,242.11073 13.637929,0.0605 c 12.82654,0.057 13.67728,0.0901 14.30353,0.55293 0.96187,0.71091 2.64694,3.00336 2.64894,3.60289 10e-4,0.52735 -2.67726,3.23161 -4.09951,4.13877 -0.75588,0.48216 -1.45761,0.50646 -14.700406,0.50746 -10.722843,7.6e-4 -14.003306,-0.0747 -14.331426,-0.32969 -0.86152,-0.66959 -2.85047,-3.22321 -2.85047,-3.65974 0,-0.50244 2.67098,-3.07802 4.32171,-4.16718 z"
       id="path4599-3" />
    <path
       inkscape:connector-curvature="0"
       style="fill:#000000;fill-opacity:0.07843138;stroke-width:0.26458335"
       d="m 127.11412,210.49302 c 0.31993,0 0.87039,0.30839 1.22318,0.68523 0.56783,0.60655 0.63613,0.90253 0.59273,2.57969 -0.0431,1.66819 -0.25596,3.50499 -1.13947,9.83195 -1.2221,8.75161 -1.63041,11.58865 -1.84691,12.8323 -0.13933,0.80036 -0.32874,2.04881 -0.42065,2.7745 -0.24384,1.92472 -0.70122,2.6095 -2.92022,4.37286 -1.09614,0.87105 -2.13719,1.58389 -2.31355,1.58389 -0.58622,0 -1.40123,-0.74864 -2.4107,-2.21434 l -0.99839,-1.45004 0.31005,-2.33474 c 0.17062,-1.28433 0.47707,-3.52588 0.6811,-4.98109 0.20403,-1.45521 0.61803,-4.55084 0.91984,-6.87917 0.30181,-2.32833 0.80931,-5.88468 1.1281,-7.90288 l 0.5798,-3.66954 1.19734,-1.1343 c 2.28174,-2.16185 4.83882,-4.09432 5.41775,-4.09432 z"
       id="path4597-5" />
    <path
       inkscape:connector-curvature="0"
       style="fill:#000000;fill-opacity:0.07843138;stroke-width:0.26458335"
       d="m 84.968888,210.3721 c 0.53753,0.039 1.14987,0.6274 2.704753,2.27324 l 1.8216,1.92805 -0.16847,2.37247 c -0.0926,1.30484 -0.28041,3.09548 -0.41703,3.97908 -0.13662,0.8836 -0.37769,2.55912 -0.53588,3.72329 -0.1582,1.16416 -0.40371,2.83104 -0.5457,3.70416 -0.14201,0.87313 -0.49992,3.13532 -0.795313,5.02709 -0.29538,1.89177 -0.65923,4.20278 -0.80822,5.1356 -0.41451,2.59507 -0.97711,3.38267 -3.93878,5.51388 -0.65724,0.47293 -1.36211,0.85989 -1.56683,0.85989 -0.43344,0 -2.30194,-1.94543 -2.79518,-2.91041 -0.28237,-0.55245 -0.2356,-1.44634 0.28267,-5.42396 0.3413,-2.61938 0.7459,-5.77453 0.89917,-7.01146 0.15327,-1.23693 0.45152,-3.32052 0.66301,-4.63021 0.2115,-1.30969 0.68441,-4.45555 1.05058,-6.99079 0.77115,-5.33905 1.10693,-6.06547 3.38119,-7.31014 0.29506,-0.16148 0.52409,-0.2575 0.76843,-0.23978 z"
       id="path4595-6" />
    <path
       inkscape:connector-curvature="0"
       style="fill:#000000;fill-opacity:0.07843138;stroke-width:0.26458335"
       d="m 102.36629,205.81527 c 2.62605,0.0115 5.62497,0.0484 8.98344,0.11059 l 12.0039,0.22221 0.49766,0.65112 c 0.27353,0.35813 0.61613,0.79473 0.7617,0.97049 0.60337,0.7285 0.20348,1.38936 -2.05,3.38377 -1.2733,1.12692 -2.75931,2.33205 -3.30213,2.67839 l -0.98702,0.62993 -13.0359,-0.0274 c -7.169816,-0.0149 -13.450766,-0.12419 -13.957796,-0.2434 -0.507023,-0.11922 -1.205433,-0.55372 -1.551843,-0.96531 -0.34642,-0.41159 -1.06263,-1.22453 -1.59164,-1.80661 -1.064393,-1.17118 -1.599653,-1.96847 -1.613853,-2.40347 -0.0126,-0.38576 1.807463,-2.19073 2.652553,-2.63033 0.79192,-0.41197 5.312763,-0.60437 13.190929,-0.56999 z"
       id="path3765-2" />
    <path
       inkscape:connector-curvature="0"
       style="fill:#000000;stroke-width:0.26458335;fill-opacity:1"
       d="m 150.62614,278.90398 v 3e-4 c 3.50682,-0.0152 7.14651,0.0299 9.93324,0.15245 l 6.48229,0.28525 1.01493,1.13378 c 2.44135,2.7266 3.02282,3.5926 2.88769,4.29948 -0.0754,0.39421 -0.64413,1.10891 -1.33015,1.67173 l -1.19839,0.98341 -3.59771,0.14417 v -5.1e-4 c -4.83389,0.19346 -22.86607,0.19963 -27.1105,0.009 l -3.40445,-0.15296 -0.89503,-1.03612 c -0.49215,-0.56995 -0.89452,-1.18007 -0.89452,-1.35547 0,-0.5617 4.72739,-4.81874 6.24768,-5.62601 0.54412,-0.28893 6.0202,-0.4831 11.86492,-0.5085 z"
       id="path4605-1" />
    <path
       inkscape:connector-curvature="0"
       style="fill:#000000;stroke-width:0.26458335;fill-opacity:1"
       d="m 177.53664,248.22576 v -1e-5 c 0.0933,-0.002 0.17088,0.0154 0.23048,0.0522 0.1477,0.0913 0.85766,0.87415 1.5782,1.73994 1.49131,1.79202 1.43812,1.00885 0.51883,7.64657 -2.1672,15.64837 -3.25959,22.32182 -3.7853,23.12416 -0.2599,0.39666 -1.02409,1.07118 -1.69809,1.49862 -0.674,0.42744 -1.30804,0.77721 -1.40921,0.77721 -0.1012,0 -1.10283,-0.98226 -2.22623,-2.18281 l -2.04277,-2.18281 0.13798,-1.71979 c 0.19883,-2.47645 0.75241,-6.71245 2.42104,-18.52083 l 0.87902,-6.21771 1.74511,-1.62109 c 1.56497,-1.45379 2.99773,-2.38185 3.65094,-2.39365 z"
       id="path4603-2" />
    <path
       inkscape:connector-curvature="0"
       style="fill:#000000;stroke-width:0.26458335;fill-opacity:1"
       d="m 137.6693,248.13946 c 0.50056,0 2.76097,2.14786 3.27887,3.11557 0.43349,0.80997 -0.21879,6.23134 -2.07688,17.25734 -0.13488,0.80036 -0.37881,2.40771 -0.54209,3.57187 -0.16325,1.16417 -0.48436,2.9373 -0.71313,3.94033 -0.46925,2.05735 -0.89279,2.57649 -4.3956,5.38624 -1.13385,0.9095 -2.21071,1.65364 -2.39313,1.65364 -0.37971,0 -1.60998,-1.25907 -1.80971,-1.85208 -0.13801,-0.40975 0.26189,-4.30892 0.96325,-9.39271 1.88523,-13.66511 2.50363,-17.91111 2.77554,-19.04999 0.24985,-1.04648 0.65796,-1.50018 3.35587,-3.73208 0.59707,-0.49394 1.2979,-0.89813 1.55701,-0.89813 z"
       id="path4601-7" />
    <path
       inkscape:connector-curvature="0"
       style="fill:#000000;fill-opacity:0.07843138;stroke-width:0.26458335"
       d="m 144.51953,242.18633 13.63793,0.0605 c 12.82654,0.057 13.67728,0.0901 14.30352,0.55293 0.96187,0.71091 2.64694,3.00336 2.64894,3.60289 0.001,0.52735 -2.67725,3.23161 -4.0995,4.13877 -0.75589,0.48216 -1.45761,0.50646 -14.7004,0.50746 -10.72285,7.6e-4 -14.00331,-0.0747 -14.33143,-0.32969 -0.86152,-0.66959 -2.85047,-3.22321 -2.85047,-3.65974 0,-0.50244 2.67098,-3.07802 4.32171,-4.16718 z"
       id="path4599-0" />
    <path
       inkscape:connector-curvature="0"
       style="fill:#000000;stroke-width:0.26458335;fill-opacity:1"
       d="m 183.96208,210.56862 c 0.31993,0 0.87039,0.30839 1.22318,0.68523 0.56783,0.60655 0.63613,0.90253 0.59273,2.57969 -0.0431,1.66819 -0.25596,3.50499 -1.13947,9.83195 -1.2221,8.75161 -1.63041,11.58865 -1.84691,12.8323 -0.13933,0.80036 -0.32875,2.04881 -0.42065,2.7745 -0.24384,1.92472 -0.70122,2.6095 -2.92022,4.37286 -1.09614,0.87105 -2.13719,1.58389 -2.31356,1.58389 -0.58622,0 -1.40123,-0.74864 -2.4107,-2.21434 l -0.99839,-1.45004 0.31005,-2.33474 c 0.17062,-1.28433 0.47707,-3.52588 0.6811,-4.98109 0.20403,-1.45521 0.61804,-4.55084 0.91984,-6.87917 0.30181,-2.32833 0.80931,-5.88468 1.1281,-7.90288 l 0.57981,-3.66954 1.19734,-1.1343 c 2.28174,-2.16185 4.83882,-4.09432 5.41775,-4.09432 z"
       id="path4597-9" />
    <path
       inkscape:connector-curvature="0"
       style="fill:#000000;stroke-width:0.26458335;fill-opacity:1"
       d="m 141.81685,210.4477 c 0.53753,0.039 1.14987,0.6274 2.70475,2.27324 l 1.8216,1.92805 -0.16847,2.37247 c -0.0926,1.30484 -0.28041,3.09548 -0.41703,3.97908 -0.13662,0.8836 -0.37769,2.55912 -0.53588,3.72329 -0.1582,1.16416 -0.40371,2.83104 -0.5457,3.70416 -0.14201,0.87313 -0.49992,3.13532 -0.79531,5.02709 -0.29538,1.89177 -0.65923,4.20278 -0.80822,5.1356 -0.41451,2.59507 -0.97711,3.38267 -3.93878,5.51388 -0.65724,0.47293 -1.36211,0.85989 -1.56683,0.85989 -0.43344,0 -2.30194,-1.94543 -2.79518,-2.91041 -0.28237,-0.55245 -0.2356,-1.44634 0.28267,-5.42396 0.3413,-2.61938 0.7459,-5.77453 0.89917,-7.01146 0.15327,-1.23693 0.45152,-3.32052 0.66301,-4.63021 0.2115,-1.30969 0.68441,-4.45555 1.05058,-6.99079 0.77115,-5.33905 1.10693,-6.06547 3.38119,-7.31014 0.29506,-0.16148 0.52409,-0.2575 0.76843,-0.23978 z"
       id="path4595-3" />
    <path
       inkscape:connector-curvature="0"
       style="fill:#000000;stroke-width:0.26458335;fill-opacity:1"
       d="m 159.21424,205.89087 c 2.62606,0.0115 5.62498,0.0484 8.98344,0.11059 l 12.00391,0.22221 0.49765,0.65112 c 0.27354,0.35813 0.61614,0.79473 0.76171,0.97049 0.60337,0.7285 0.20348,1.38936 -2.05,3.38377 -1.27331,1.12692 -2.75931,2.33205 -3.30213,2.67839 l -0.98702,0.62993 -13.0359,-0.0274 c -7.16981,-0.0149 -13.45077,-0.12419 -13.9578,-0.2434 -0.50702,-0.11922 -1.20543,-0.55372 -1.55184,-0.96531 -0.34642,-0.41159 -1.06263,-1.22453 -1.59164,-1.80661 -1.06439,-1.17118 -1.59965,-1.96847 -1.61385,-2.40347 -0.0126,-0.38576 1.80746,-2.19073 2.65255,-2.63033 0.79192,-0.41197 5.31277,-0.60437 13.19092,-0.56999 z"
       id="path3765-6" />
    <path
       inkscape:connector-curvature="0"
       style="fill:#000000;stroke-width:0.26458335;fill-opacity:1"
       d="m 36.85458,278.97961 v 3e-4 c 3.506829,-0.0152 7.146519,0.0299 9.933249,0.15245 l 6.48229,0.28525 1.01493,1.13378 c 2.44135,2.7266 3.02281,3.5926 2.88768,4.29948 -0.0754,0.39421 -0.64412,1.10891 -1.33015,1.67173 l -1.19838,0.98341 -3.59771,0.14417 v -5.1e-4 c -4.83389,0.19346 -22.866075,0.19963 -27.110505,0.009 l -3.40445,-0.15296 -0.89503,-1.03612 c -0.49215,-0.56995 -0.89452,-1.18007 -0.89452,-1.35547 0,-0.5617 4.72739,-4.81874 6.24768,-5.62601 0.54412,-0.28893 6.0202,-0.4831 11.864916,-0.5085 z"
       id="path4605-62" />
    <path
       inkscape:connector-curvature="0"
       style="fill:#000000;fill-opacity:0.07843138;stroke-width:0.26458335"
       d="m 63.765089,248.30139 v -1e-5 c 0.0933,-0.002 0.17088,0.0154 0.23048,0.0522 0.1477,0.0913 0.85766,0.87415 1.5782,1.73994 1.49131,1.79202 1.43812,1.00885 0.51883,7.64657 -2.1672,15.64837 -3.25959,22.32182 -3.7853,23.12416 -0.2599,0.39666 -1.02409,1.07118 -1.69809,1.49862 -0.674,0.42744 -1.30804,0.77721 -1.40921,0.77721 -0.1012,0 -1.10283,-0.98226 -2.22623,-2.18281 l -2.04277,-2.18281 0.13798,-1.71979 c 0.19883,-2.47645 0.75241,-6.71245 2.42104,-18.52083 l 0.87902,-6.21771 1.74511,-1.62109 c 1.56497,-1.45379 2.99773,-2.38185 3.65094,-2.39365 z"
       id="path4603-6" />
    <path
       inkscape:connector-curvature="0"
       style="fill:#000000;stroke-width:0.26458335;fill-opacity:1"
       d="m 23.897744,248.21509 c 0.50056,0 2.76097,2.14786 3.27887,3.11557 0.43349,0.80997 -0.21879,6.23134 -2.07688,17.25734 -0.13488,0.80036 -0.37881,2.40771 -0.54209,3.57187 -0.16325,1.16417 -0.48436,2.9373 -0.71313,3.94033 -0.46925,2.05735 -0.89279,2.57649 -4.3956,5.38624 -1.13385,0.9095 -2.21071,1.65364 -2.39313,1.65364 -0.37971,0 -1.60998,-1.25907 -1.80971,-1.85208 -0.13801,-0.40975 0.26189,-4.30892 0.96325,-9.39271 1.88523,-13.66511 2.50363,-17.91111 2.77554,-19.04999 0.24985,-1.04648 0.65796,-1.50018 3.35587,-3.73208 0.59707,-0.49394 1.2979,-0.89813 1.55701,-0.89813 z"
       id="path4601-1" />
    <path
       inkscape:connector-curvature="0"
       style="fill:#000000;fill-opacity:0.07843138;stroke-width:0.26458335"
       d="m 30.747974,242.26196 13.637935,0.0605 c 12.82654,0.057 13.67728,0.0901 14.30352,0.55293 0.96187,0.71091 2.64694,3.00336 2.64894,3.60289 10e-4,0.52735 -2.67725,3.23161 -4.0995,4.13877 -0.75589,0.48216 -1.45761,0.50646 -14.7004,0.50746 -10.722855,7.6e-4 -14.003315,-0.0747 -14.331435,-0.32969 -0.86152,-0.66959 -2.85047,-3.22321 -2.85047,-3.65974 0,-0.50244 2.67098,-3.07802 4.32171,-4.16718 z"
       id="path4599-8" />
    <path
       inkscape:connector-curvature="0"
       style="fill:#000000;fill-opacity:0.07843138;stroke-width:0.26458335"
       d="m 70.190529,210.64424 c 0.31993,0 0.87039,0.3084 1.22318,0.68524 0.56783,0.60655 0.63613,0.90253 0.59273,2.57969 -0.0431,1.66818 -0.25596,3.50499 -1.13947,9.83195 -1.2221,8.75161 -1.63041,11.58865 -1.84691,12.8323 -0.13933,0.80036 -0.32875,2.04881 -0.42065,2.7745 -0.24384,1.92472 -0.70122,2.6095 -2.92022,4.37286 -1.09614,0.87105 -2.13719,1.58389 -2.31356,1.58389 -0.58622,0 -1.40123,-0.74864 -2.4107,-2.21434 l -0.99839,-1.45004 0.31005,-2.33474 c 0.17062,-1.28433 0.47707,-3.52588 0.6811,-4.98109 0.20403,-1.45521 0.61803,-4.55084 0.91984,-6.87917 0.30181,-2.32833 0.80931,-5.88468 1.1281,-7.90288 l 0.57981,-3.66954 1.19734,-1.1343 c 2.28174,-2.16185 4.83882,-4.09432 5.41775,-4.09433 z"
       id="path4597-7" />
    <path
       inkscape:connector-curvature="0"
       style="fill:#000000;stroke-width:0.26458335;fill-opacity:1"
       d="m 28.045294,210.52333 c 0.53753,0.039 1.14987,0.62739 2.70475,2.27324 l 1.8216,1.92805 -0.16847,2.37246 c -0.0926,1.30485 -0.28041,3.09549 -0.41703,3.97909 -0.13662,0.8836 -0.37769,2.55912 -0.53588,3.72329 -0.1582,1.16416 -0.40371,2.83104 -0.5457,3.70416 -0.14201,0.87313 -0.49992,3.13532 -0.79531,5.02709 -0.29538,1.89177 -0.65923,4.20278 -0.80822,5.1356 -0.41451,2.59507 -0.97711,3.38267 -3.93878,5.51388 -0.65724,0.47293 -1.36211,0.85989 -1.56683,0.85989 -0.43344,0 -2.30194,-1.94543 -2.79518,-2.91041 -0.28237,-0.55245 -0.2356,-1.44634 0.28267,-5.42396 0.3413,-2.61938 0.7459,-5.77453 0.89917,-7.01146 0.15327,-1.23693 0.45152,-3.32052 0.66301,-4.63021 0.2115,-1.30969 0.68441,-4.45555 1.05058,-6.99079 0.77115,-5.33905 1.10693,-6.06548 3.38119,-7.31015 0.29506,-0.16148 0.52409,-0.25749 0.76843,-0.23977 z"
       id="path4595-9" />
    <path
       inkscape:connector-curvature="0"
       style="fill:#000000;fill-opacity:0.07843138;stroke-width:0.26458335"
       d="m 45.442689,205.9665 c 2.62606,0.0115 5.62498,0.0484 8.98344,0.11059 l 12.00391,0.22221 0.49765,0.65112 c 0.27354,0.35813 0.61614,0.79473 0.76171,0.97049 0.60337,0.7285 0.20348,1.38936 -2.05,3.38377 -1.27331,1.12692 -2.75931,2.33205 -3.30213,2.67839 l -0.98702,0.62993 -13.0359,-0.0274 c -7.16981,-0.0149 -13.450775,-0.12419 -13.957805,-0.2434 -0.50702,-0.11922 -1.20543,-0.55372 -1.55184,-0.96531 -0.34642,-0.41159 -1.06263,-1.22453 -1.59164,-1.80661 -1.06439,-1.17118 -1.59965,-1.96847 -1.61385,-2.40347 -0.0126,-0.38576 1.80746,-2.19073 2.65255,-2.63033 0.79192,-0.41197 5.312766,-0.60437 13.190925,-0.56999 z"
       id="path3765-20" />
  </g>
</svg>
